<mxfile host="app.diagrams.net" modified="2023-04-17T12:11:58.111Z" agent="Mozilla/5.0 (Windows NT 10.0; Win64; x64; rv:109.0) Gecko/20100101 Firefox/112.0" etag="azucSw1IhV5F-S7krUuC" version="21.1.8" type="github">
  <diagram id="kgpKYQtTHZ0yAKxKKP6v" name="Page-1">
    <mxGraphModel dx="1434" dy="754" grid="1" gridSize="10" guides="1" tooltips="1" connect="1" arrows="1" fold="1" page="1" pageScale="1" pageWidth="1169" pageHeight="827" math="0" shadow="0">
      <root>
        <mxCell id="0" />
        <mxCell id="1" parent="0" />
        <mxCell id="PC4rQXpOwYb6489nLgDP-1" value="" style="rounded=0;whiteSpace=wrap;html=1;fillColor=#f5f5f5;fontColor=#333333;strokeColor=#666666;" parent="1" vertex="1">
          <mxGeometry x="10" width="1150" height="90" as="geometry" />
        </mxCell>
        <mxCell id="PC4rQXpOwYb6489nLgDP-2" value="Filtrer affichages" style="shape=partialRectangle;whiteSpace=wrap;html=1;bottom=0;top=0;fillColor=none;" parent="1" vertex="1">
          <mxGeometry x="250" y="20" width="130" height="50" as="geometry" />
        </mxCell>
        <mxCell id="PC4rQXpOwYb6489nLgDP-3" value="Formulaires" style="shape=partialRectangle;whiteSpace=wrap;html=1;bottom=0;top=0;fillColor=none;" parent="1" vertex="1">
          <mxGeometry x="380" y="20" width="130" height="50" as="geometry" />
        </mxCell>
        <mxCell id="PC4rQXpOwYb6489nLgDP-4" value="Modifications" style="shape=partialRectangle;whiteSpace=wrap;html=1;bottom=0;top=0;fillColor=none;" parent="1" vertex="1">
          <mxGeometry x="510" y="20" width="130" height="50" as="geometry" />
        </mxCell>
        <mxCell id="PC4rQXpOwYb6489nLgDP-5" value="&lt;p style=&quot;line-height: 120%;&quot;&gt;Accueil&lt;/p&gt;" style="shape=partialRectangle;whiteSpace=wrap;html=1;bottom=0;top=0;fillColor=none;" parent="1" vertex="1">
          <mxGeometry x="115" y="20" width="135" height="50" as="geometry" />
        </mxCell>
        <mxCell id="PC4rQXpOwYb6489nLgDP-6" value="" style="triangle;whiteSpace=wrap;html=1;rotation=90;" parent="1" vertex="1">
          <mxGeometry x="360" y="50" width="10" height="20" as="geometry" />
        </mxCell>
        <mxCell id="PC4rQXpOwYb6489nLgDP-7" value="" style="triangle;whiteSpace=wrap;html=1;rotation=90;" parent="1" vertex="1">
          <mxGeometry x="490" y="50" width="10" height="20" as="geometry" />
        </mxCell>
        <mxCell id="PC4rQXpOwYb6489nLgDP-8" value="FOOTER" style="rounded=0;whiteSpace=wrap;html=1;resizeWidth=0;" parent="1" vertex="1">
          <mxGeometry x="10" y="767" width="1150" height="60" as="geometry" />
        </mxCell>
        <mxCell id="PC4rQXpOwYb6489nLgDP-9" value="" style="rounded=1;whiteSpace=wrap;html=1;" parent="1" vertex="1">
          <mxGeometry x="345" y="149" width="480" height="481" as="geometry" />
        </mxCell>
        <mxCell id="PC4rQXpOwYb6489nLgDP-10" value="" style="rounded=0;whiteSpace=wrap;html=1;" parent="1" vertex="1">
          <mxGeometry x="457" y="230" width="255" height="30" as="geometry" />
        </mxCell>
        <mxCell id="PC4rQXpOwYb6489nLgDP-11" value="&lt;b&gt;&lt;font style=&quot;font-size: 16px;&quot;&gt;Formulaire d&#39;ajout de film&lt;/font&gt;&lt;/b&gt;" style="text;html=1;strokeColor=none;fillColor=none;align=center;verticalAlign=middle;whiteSpace=wrap;rounded=0;" parent="1" vertex="1">
          <mxGeometry x="483.5" y="170" width="203" height="30" as="geometry" />
        </mxCell>
        <mxCell id="PC4rQXpOwYb6489nLgDP-12" value="Titre :" style="text;html=1;strokeColor=none;fillColor=none;align=center;verticalAlign=middle;whiteSpace=wrap;rounded=0;" parent="1" vertex="1">
          <mxGeometry x="390" y="230" width="60" height="30" as="geometry" />
        </mxCell>
        <mxCell id="PC4rQXpOwYb6489nLgDP-13" value="Genres :" style="text;html=1;strokeColor=none;fillColor=none;align=center;verticalAlign=middle;whiteSpace=wrap;rounded=0;" parent="1" vertex="1">
          <mxGeometry x="392" y="270" width="60" height="30" as="geometry" />
        </mxCell>
        <mxCell id="PC4rQXpOwYb6489nLgDP-16" value="" style="rounded=0;whiteSpace=wrap;html=1;" parent="1" vertex="1">
          <mxGeometry x="457" y="270" width="183" height="30" as="geometry" />
        </mxCell>
        <mxCell id="PC4rQXpOwYb6489nLgDP-18" value="" style="triangle;whiteSpace=wrap;html=1;rotation=90;" parent="1" vertex="1">
          <mxGeometry x="620" y="275" width="10" height="20" as="geometry" />
        </mxCell>
        <mxCell id="PC4rQXpOwYb6489nLgDP-19" value="YYYY-MM-DD" style="rounded=0;whiteSpace=wrap;html=1;" parent="1" vertex="1">
          <mxGeometry x="457" y="310" width="120" height="30" as="geometry" />
        </mxCell>
        <mxCell id="PC4rQXpOwYb6489nLgDP-20" value="Date de sortie :" style="text;html=1;strokeColor=none;fillColor=none;align=center;verticalAlign=middle;whiteSpace=wrap;rounded=0;" parent="1" vertex="1">
          <mxGeometry x="367" y="310" width="90" height="30" as="geometry" />
        </mxCell>
        <mxCell id="PC4rQXpOwYb6489nLgDP-21" value="" style="rounded=0;whiteSpace=wrap;html=1;" parent="1" vertex="1">
          <mxGeometry x="457" y="350" width="120" height="30" as="geometry" />
        </mxCell>
        <mxCell id="PC4rQXpOwYb6489nLgDP-22" value="durée :" style="text;html=1;strokeColor=none;fillColor=none;align=center;verticalAlign=middle;whiteSpace=wrap;rounded=0;" parent="1" vertex="1">
          <mxGeometry x="390" y="350" width="60" height="30" as="geometry" />
        </mxCell>
        <mxCell id="PC4rQXpOwYb6489nLgDP-23" value="min." style="text;html=1;strokeColor=none;fillColor=none;align=center;verticalAlign=middle;whiteSpace=wrap;rounded=0;" parent="1" vertex="1">
          <mxGeometry x="584.5" y="350" width="25.5" height="30" as="geometry" />
        </mxCell>
        <mxCell id="PC4rQXpOwYb6489nLgDP-24" value="" style="rounded=0;whiteSpace=wrap;html=1;" parent="1" vertex="1">
          <mxGeometry x="457" y="390" width="183" height="30" as="geometry" />
        </mxCell>
        <mxCell id="PC4rQXpOwYb6489nLgDP-25" value="" style="triangle;whiteSpace=wrap;html=1;rotation=90;" parent="1" vertex="1">
          <mxGeometry x="620" y="395" width="10" height="20" as="geometry" />
        </mxCell>
        <mxCell id="PC4rQXpOwYb6489nLgDP-26" value="Réalisateur :" style="text;html=1;strokeColor=none;fillColor=none;align=center;verticalAlign=middle;whiteSpace=wrap;rounded=0;" parent="1" vertex="1">
          <mxGeometry x="372" y="390" width="80" height="30" as="geometry" />
        </mxCell>
        <mxCell id="PC4rQXpOwYb6489nLgDP-30" value="Valider" style="rounded=1;whiteSpace=wrap;html=1;" parent="1" vertex="1">
          <mxGeometry x="527.5" y="570" width="80" height="30" as="geometry" />
        </mxCell>
        <mxCell id="PC4rQXpOwYb6489nLgDP-31" value="&lt;i&gt;Si le réalisateur n&#39;apparait pas dans la liste veuillez remplir le formulaire d&#39;ajout de réalisteur en &lt;font color=&quot;#a9c4eb&quot;&gt;cliquant ici.&lt;/font&gt;&lt;/i&gt;" style="text;html=1;strokeColor=none;fillColor=none;align=center;verticalAlign=middle;whiteSpace=wrap;rounded=0;" parent="1" vertex="1">
          <mxGeometry x="428.5" y="430" width="313" height="30" as="geometry" />
        </mxCell>
        <mxCell id="KHzDakzjCaGhVG2n0VN0-2" value="Affiche :&lt;br&gt;&lt;i&gt;(facultatif)&lt;/i&gt;" style="text;html=1;strokeColor=none;fillColor=none;align=center;verticalAlign=middle;whiteSpace=wrap;rounded=0;" parent="1" vertex="1">
          <mxGeometry x="397" y="480" width="60" height="30" as="geometry" />
        </mxCell>
        <mxCell id="KHzDakzjCaGhVG2n0VN0-3" value="" style="rounded=0;whiteSpace=wrap;html=1;" parent="1" vertex="1">
          <mxGeometry x="465" y="480" width="205" height="30" as="geometry" />
        </mxCell>
        <object label="Parcourir..." width="30px" id="KHzDakzjCaGhVG2n0VN0-4">
          <mxCell style="rounded=1;whiteSpace=wrap;html=1;imageWidth=21;imageAspect=1;rotation=0;" parent="1" vertex="1">
            <mxGeometry x="680" y="480" width="90" height="30" as="geometry" />
          </mxCell>
        </object>
        <mxCell id="KHzDakzjCaGhVG2n0VN0-8" value="Note:&lt;br&gt;&lt;i&gt;(facultatif)&lt;/i&gt;" style="text;html=1;strokeColor=none;fillColor=none;align=center;verticalAlign=middle;whiteSpace=wrap;rounded=0;" parent="1" vertex="1">
          <mxGeometry x="397" y="520" width="60" height="30" as="geometry" />
        </mxCell>
        <mxCell id="KHzDakzjCaGhVG2n0VN0-9" value="" style="rounded=0;whiteSpace=wrap;html=1;" parent="1" vertex="1">
          <mxGeometry x="465" y="520" width="55" height="30" as="geometry" />
        </mxCell>
        <mxCell id="KHzDakzjCaGhVG2n0VN0-10" value="/ 5" style="text;html=1;strokeColor=none;fillColor=none;align=center;verticalAlign=middle;whiteSpace=wrap;rounded=0;" parent="1" vertex="1">
          <mxGeometry x="520" y="530" width="30" height="30" as="geometry" />
        </mxCell>
      </root>
    </mxGraphModel>
  </diagram>
</mxfile>
